<mxfile host="65bd71144e">
    <diagram id="r0k34etn6OOg8sfutm2Q" name="NewContainer_workflow">
        <mxGraphModel dx="746" dy="504" grid="1" gridSize="10" guides="1" tooltips="1" connect="1" arrows="1" fold="1" page="1" pageScale="1" pageWidth="827" pageHeight="1169" math="0" shadow="0">
            <root>
                <mxCell id="0"/>
                <mxCell id="1" parent="0"/>
                <mxCell id="9" style="edgeStyle=none;html=1;exitX=1;exitY=0.5;exitDx=0;exitDy=0;entryX=0;entryY=0.5;entryDx=0;entryDy=0;" parent="1" source="6" target="7" edge="1">
                    <mxGeometry relative="1" as="geometry">
                        <Array as="points">
                            <mxPoint x="360" y="200"/>
                            <mxPoint x="360" y="160"/>
                        </Array>
                    </mxGeometry>
                </mxCell>
                <mxCell id="12" value="grpc call" style="edgeLabel;html=1;align=center;verticalAlign=middle;resizable=0;points=[];" parent="9" vertex="1" connectable="0">
                    <mxGeometry x="0.3" y="-1" relative="1" as="geometry">
                        <mxPoint x="-1" y="18" as="offset"/>
                    </mxGeometry>
                </mxCell>
                <mxCell id="4" value="" style="rounded=0;whiteSpace=wrap;html=1;" parent="1" vertex="1">
                    <mxGeometry x="160" y="80" width="160" height="160" as="geometry"/>
                </mxCell>
                <mxCell id="5" value="CRI (GRPC)" style="text;html=1;strokeColor=none;fillColor=none;align=center;verticalAlign=middle;whiteSpace=wrap;rounded=0;" parent="1" vertex="1">
                    <mxGeometry x="160" y="120" width="100" height="30" as="geometry"/>
                </mxCell>
                <mxCell id="6" value="containerd client" style="rounded=0;whiteSpace=wrap;html=1;" parent="1" vertex="1">
                    <mxGeometry x="210" y="160" width="110" height="80" as="geometry"/>
                </mxCell>
                <mxCell id="10" style="edgeStyle=none;html=1;entryX=0.5;entryY=0;entryDx=0;entryDy=0;" parent="1" source="7" target="8" edge="1">
                    <mxGeometry relative="1" as="geometry"/>
                </mxCell>
                <mxCell id="13" value="call plugin" style="edgeLabel;html=1;align=center;verticalAlign=middle;resizable=0;points=[];" parent="10" vertex="1" connectable="0">
                    <mxGeometry x="0.3143" y="1" relative="1" as="geometry">
                        <mxPoint as="offset"/>
                    </mxGeometry>
                </mxCell>
                <mxCell id="7" value="containers (GRPC)" style="rounded=0;whiteSpace=wrap;html=1;" parent="1" vertex="1">
                    <mxGeometry x="400" y="80" width="160" height="160" as="geometry"/>
                </mxCell>
                <mxCell id="AqN1_XjdIKDp6OtWtEQa-18" style="edgeStyle=none;html=1;entryX=0.5;entryY=0;entryDx=0;entryDy=0;fontSize=24;" parent="1" source="8" target="15" edge="1">
                    <mxGeometry relative="1" as="geometry">
                        <Array as="points">
                            <mxPoint x="480" y="440"/>
                            <mxPoint x="360" y="440"/>
                        </Array>
                    </mxGeometry>
                </mxCell>
                <mxCell id="AqN1_XjdIKDp6OtWtEQa-19" style="edgeStyle=none;html=1;entryX=0.5;entryY=0;entryDx=0;entryDy=0;fontSize=24;" parent="1" source="8" target="14" edge="1">
                    <mxGeometry relative="1" as="geometry">
                        <Array as="points">
                            <mxPoint x="480" y="440"/>
                            <mxPoint x="600" y="440"/>
                        </Array>
                    </mxGeometry>
                </mxCell>
                <mxCell id="AqN1_XjdIKDp6OtWtEQa-20" value="&lt;font style=&quot;font-size: 14px;&quot;&gt;call plugin&lt;/font&gt;" style="edgeLabel;html=1;align=center;verticalAlign=middle;resizable=0;points=[];fontSize=24;" parent="AqN1_XjdIKDp6OtWtEQa-19" vertex="1" connectable="0">
                    <mxGeometry x="-0.892" y="-1" relative="1" as="geometry">
                        <mxPoint x="1" y="9" as="offset"/>
                    </mxGeometry>
                </mxCell>
                <mxCell id="8" value="containers-service (service)" style="rounded=0;whiteSpace=wrap;html=1;" parent="1" vertex="1">
                    <mxGeometry x="400" y="320" width="160" height="80" as="geometry"/>
                </mxCell>
                <mxCell id="14" value="bolt (metadata)" style="rounded=0;whiteSpace=wrap;html=1;" parent="1" vertex="1">
                    <mxGeometry x="520" y="480" width="160" height="80" as="geometry"/>
                </mxCell>
                <mxCell id="15" value="exchange (event)" style="rounded=0;whiteSpace=wrap;html=1;" parent="1" vertex="1">
                    <mxGeometry x="280" y="480" width="160" height="80" as="geometry"/>
                </mxCell>
            </root>
        </mxGraphModel>
    </diagram>
    <diagram name="NewTask_workflow" id="o01S9ISH2fWeTWRH3a4T">
        <mxGraphModel grid="1" page="1" gridSize="10" guides="1" tooltips="1" connect="1" arrows="1" fold="1" pageScale="1" pageWidth="827" pageHeight="1169" background="none" math="0" shadow="0">
            <root>
                <mxCell id="lwEaEVw-wX0ZS6Cv4j98-0"/>
                <mxCell id="lwEaEVw-wX0ZS6Cv4j98-1" parent="lwEaEVw-wX0ZS6Cv4j98-0"/>
                <mxCell id="2v7Zz_PQlHcIcJaRccYk-0" value="" style="rounded=0;whiteSpace=wrap;html=1;" parent="lwEaEVw-wX0ZS6Cv4j98-1" vertex="1">
                    <mxGeometry y="40" width="480" height="560" as="geometry"/>
                </mxCell>
                <mxCell id="lwEaEVw-wX0ZS6Cv4j98-2" style="edgeStyle=none;html=1;entryX=0;entryY=0.5;entryDx=0;entryDy=0;exitX=1;exitY=0.5;exitDx=0;exitDy=0;" parent="lwEaEVw-wX0ZS6Cv4j98-1" source="lwEaEVw-wX0ZS6Cv4j98-6" target="lwEaEVw-wX0ZS6Cv4j98-9" edge="1">
                    <mxGeometry relative="1" as="geometry">
                        <mxPoint x="240" y="200" as="sourcePoint"/>
                        <Array as="points">
                            <mxPoint x="240" y="200"/>
                            <mxPoint x="240" y="160"/>
                        </Array>
                    </mxGeometry>
                </mxCell>
                <mxCell id="lwEaEVw-wX0ZS6Cv4j98-3" value="grpc call" style="edgeLabel;html=1;align=center;verticalAlign=middle;resizable=0;points=[];" parent="lwEaEVw-wX0ZS6Cv4j98-2" vertex="1" connectable="0">
                    <mxGeometry x="0.3" y="-1" relative="1" as="geometry">
                        <mxPoint x="-1" y="24" as="offset"/>
                    </mxGeometry>
                </mxCell>
                <mxCell id="lwEaEVw-wX0ZS6Cv4j98-4" value="" style="rounded=0;whiteSpace=wrap;html=1;" parent="lwEaEVw-wX0ZS6Cv4j98-1" vertex="1">
                    <mxGeometry x="40" y="80" width="160" height="160" as="geometry"/>
                </mxCell>
                <mxCell id="lwEaEVw-wX0ZS6Cv4j98-5" value="CRI (GRPC)" style="text;html=1;strokeColor=none;fillColor=none;align=center;verticalAlign=middle;whiteSpace=wrap;rounded=0;" parent="lwEaEVw-wX0ZS6Cv4j98-1" vertex="1">
                    <mxGeometry x="40" y="120" width="100" height="30" as="geometry"/>
                </mxCell>
                <mxCell id="lwEaEVw-wX0ZS6Cv4j98-6" value="containerd client" style="rounded=0;whiteSpace=wrap;html=1;" parent="lwEaEVw-wX0ZS6Cv4j98-1" vertex="1">
                    <mxGeometry x="90" y="160" width="110" height="80" as="geometry"/>
                </mxCell>
                <mxCell id="lwEaEVw-wX0ZS6Cv4j98-7" style="edgeStyle=none;html=1;entryX=0.5;entryY=0;entryDx=0;entryDy=0;" parent="lwEaEVw-wX0ZS6Cv4j98-1" source="lwEaEVw-wX0ZS6Cv4j98-9" target="lwEaEVw-wX0ZS6Cv4j98-13" edge="1">
                    <mxGeometry relative="1" as="geometry">
                        <Array as="points">
                            <mxPoint x="360" y="320"/>
                        </Array>
                    </mxGeometry>
                </mxCell>
                <mxCell id="lwEaEVw-wX0ZS6Cv4j98-8" value="call plugin" style="edgeLabel;html=1;align=center;verticalAlign=middle;resizable=0;points=[];" parent="lwEaEVw-wX0ZS6Cv4j98-7" vertex="1" connectable="0">
                    <mxGeometry x="0.3143" y="1" relative="1" as="geometry">
                        <mxPoint as="offset"/>
                    </mxGeometry>
                </mxCell>
                <mxCell id="lwEaEVw-wX0ZS6Cv4j98-9" value="tasks (GRPC)" style="rounded=0;whiteSpace=wrap;html=1;" parent="lwEaEVw-wX0ZS6Cv4j98-1" vertex="1">
                    <mxGeometry x="280" y="80" width="160" height="160" as="geometry"/>
                </mxCell>
                <mxCell id="MRPL2BJ_Pl_vVG8cD8SG-0" style="edgeStyle=none;html=1;entryX=0.5;entryY=0;entryDx=0;entryDy=0;" parent="lwEaEVw-wX0ZS6Cv4j98-1" source="lwEaEVw-wX0ZS6Cv4j98-13" target="lwEaEVw-wX0ZS6Cv4j98-15" edge="1">
                    <mxGeometry relative="1" as="geometry"/>
                </mxCell>
                <mxCell id="MRPL2BJ_Pl_vVG8cD8SG-1" value="call plugin" style="edgeLabel;html=1;align=center;verticalAlign=middle;resizable=0;points=[];" parent="MRPL2BJ_Pl_vVG8cD8SG-0" vertex="1" connectable="0">
                    <mxGeometry x="-0.4821" relative="1" as="geometry">
                        <mxPoint y="19" as="offset"/>
                    </mxGeometry>
                </mxCell>
                <mxCell id="lwEaEVw-wX0ZS6Cv4j98-13" value="tasks-service (service)" style="rounded=0;whiteSpace=wrap;html=1;" parent="lwEaEVw-wX0ZS6Cv4j98-1" vertex="1">
                    <mxGeometry x="280" y="320" width="160" height="80" as="geometry"/>
                </mxCell>
                <mxCell id="MRPL2BJ_Pl_vVG8cD8SG-3" style="edgeStyle=none;html=1;entryX=0;entryY=0.5;entryDx=0;entryDy=0;exitX=1;exitY=0.5;exitDx=0;exitDy=0;" parent="lwEaEVw-wX0ZS6Cv4j98-1" source="lwEaEVw-wX0ZS6Cv4j98-15" target="MRPL2BJ_Pl_vVG8cD8SG-2" edge="1">
                    <mxGeometry relative="1" as="geometry"/>
                </mxCell>
                <mxCell id="MRPL2BJ_Pl_vVG8cD8SG-4" value="create process" style="edgeLabel;html=1;align=center;verticalAlign=middle;resizable=0;points=[];" parent="MRPL2BJ_Pl_vVG8cD8SG-3" vertex="1" connectable="0">
                    <mxGeometry x="-0.5521" y="2" relative="1" as="geometry">
                        <mxPoint x="40" y="-8" as="offset"/>
                    </mxGeometry>
                </mxCell>
                <mxCell id="MRPL2BJ_Pl_vVG8cD8SG-5" value="call with ttrpc" style="edgeLabel;html=1;align=center;verticalAlign=middle;resizable=0;points=[];" parent="MRPL2BJ_Pl_vVG8cD8SG-3" vertex="1" connectable="0">
                    <mxGeometry x="0.1979" y="-2" relative="1" as="geometry">
                        <mxPoint x="-16" y="18" as="offset"/>
                    </mxGeometry>
                </mxCell>
                <mxCell id="lwEaEVw-wX0ZS6Cv4j98-15" value="task (runtime)" style="rounded=0;whiteSpace=wrap;html=1;" parent="lwEaEVw-wX0ZS6Cv4j98-1" vertex="1">
                    <mxGeometry x="280" y="480" width="160" height="80" as="geometry"/>
                </mxCell>
                <mxCell id="MRPL2BJ_Pl_vVG8cD8SG-7" style="edgeStyle=none;html=1;entryX=0;entryY=0.5;entryDx=0;entryDy=0;" parent="lwEaEVw-wX0ZS6Cv4j98-1" source="MRPL2BJ_Pl_vVG8cD8SG-2" target="MRPL2BJ_Pl_vVG8cD8SG-6" edge="1">
                    <mxGeometry relative="1" as="geometry"/>
                </mxCell>
                <mxCell id="MRPL2BJ_Pl_vVG8cD8SG-8" value="command run" style="edgeLabel;html=1;align=center;verticalAlign=middle;resizable=0;points=[];" parent="MRPL2BJ_Pl_vVG8cD8SG-7" vertex="1" connectable="0">
                    <mxGeometry x="-0.6207" y="2" relative="1" as="geometry">
                        <mxPoint x="25" y="2" as="offset"/>
                    </mxGeometry>
                </mxCell>
                <mxCell id="MRPL2BJ_Pl_vVG8cD8SG-2" value="shim" style="rounded=0;whiteSpace=wrap;html=1;" parent="lwEaEVw-wX0ZS6Cv4j98-1" vertex="1">
                    <mxGeometry x="600" y="480" width="160" height="80" as="geometry"/>
                </mxCell>
                <mxCell id="MRPL2BJ_Pl_vVG8cD8SG-6" value="runc" style="rounded=0;whiteSpace=wrap;html=1;" parent="lwEaEVw-wX0ZS6Cv4j98-1" vertex="1">
                    <mxGeometry x="880" y="480" width="160" height="80" as="geometry"/>
                </mxCell>
                <mxCell id="2v7Zz_PQlHcIcJaRccYk-1" value="&lt;font style=&quot;font-size: 24px;&quot;&gt;containerd&lt;/font&gt;" style="text;html=1;strokeColor=none;fillColor=none;align=center;verticalAlign=middle;whiteSpace=wrap;rounded=0;" parent="lwEaEVw-wX0ZS6Cv4j98-1" vertex="1">
                    <mxGeometry x="50" y="360" width="130" height="110" as="geometry"/>
                </mxCell>
            </root>
        </mxGraphModel>
    </diagram>
</mxfile>